<svg xmlns:xlink="http://www.w3.org/1999/xlink" xmlns="http://www.w3.org/2000/svg" viewBox="0 0 58 24" fill="none" width="58"  height="24" >
    <path fill-rule="evenodd" clip-rule="evenodd" d="M57.6769 12.4005C57.6769 8.29906 55.6902 5.06274 51.8932 5.06274C48.0801 5.06274 45.773 8.29906 45.773 12.3685C45.773 17.1909 48.4966 19.6262 52.4058 19.6262C54.3124 19.6262 55.7543 19.1936 56.8438 18.5848V15.3805C55.7543 15.9252 54.5046 16.2617 52.9185 16.2617C51.3645 16.2617 49.9866 15.717 49.8104 13.8264H57.6448C57.6448 13.6182 57.6769 12.785 57.6769 12.4005ZM49.7623 10.8785C49.7623 9.06809 50.8678 8.31508 51.8771 8.31508C52.8544 8.31508 53.8958 9.06809 53.8958 10.8785H49.7623Z" fill="#635BFF"/>
    <path fill-rule="evenodd" clip-rule="evenodd" d="M39.5888 5.06274C38.0187 5.06274 37.0094 5.79973 36.4486 6.31241L36.2404 5.31909H32.7157V24L36.721 23.1509L36.737 18.6168C37.3138 19.0334 38.1629 19.6262 39.5728 19.6262C42.4406 19.6262 45.0521 17.3191 45.0521 12.2403C45.0361 7.59412 42.3926 5.06274 39.5888 5.06274ZM38.6275 16.1015C37.6823 16.1015 37.1215 15.765 36.737 15.3485L36.721 9.40453C37.1376 8.93991 37.7143 8.61949 38.6275 8.61949C40.0855 8.61949 41.0948 10.2537 41.0948 12.3525C41.0948 14.4993 40.1015 16.1015 38.6275 16.1015Z" fill="#635BFF"/>
    <path fill-rule="evenodd" clip-rule="evenodd" d="M31.2256 3.25234V0L27.2043 0.849132V4.11749L31.2256 3.25234Z" fill="#635BFF"/>
    <path d="M31.2256 5.33521H27.2043V19.3539H31.2256V5.33521Z" fill="#635BFF"/>
    <path fill-rule="evenodd" clip-rule="evenodd" d="M22.8946 6.52074L22.6382 5.33516H19.1776V19.3539H23.183V9.85319C24.1282 8.61954 25.7304 8.84384 26.227 9.02008V5.33516C25.7143 5.14291 23.8398 4.79043 22.8946 6.52074Z" fill="#635BFF"/>
    <path fill-rule="evenodd" clip-rule="evenodd" d="M14.8838 1.8584L10.9746 2.69151L10.9586 15.5246C10.9586 17.8958 12.737 19.6421 15.1081 19.6421C16.4219 19.6421 17.3832 19.4018 17.9119 19.1134V15.8611C17.3992 16.0693 14.8678 16.8063 14.8678 14.4352V8.74758H17.9119V5.33503H14.8678L14.8838 1.8584Z" fill="#635BFF"/>
    <path fill-rule="evenodd" clip-rule="evenodd" d="M4.05341 9.40453C4.05341 8.7797 4.56609 8.53938 5.41522 8.53938C6.63284 8.53938 8.17089 8.90787 9.38852 9.56475V5.79973C8.05874 5.27102 6.74499 5.06274 5.41522 5.06274C2.16288 5.06274 0 6.76101 0 9.59679C0 14.0187 6.08812 13.3137 6.08812 15.2203C6.08812 15.9573 5.44726 16.1976 4.55007 16.1976C3.22029 16.1976 1.52203 15.6529 0.176235 14.9159V18.729C1.66622 19.3698 3.17223 19.6422 4.55007 19.6422C7.88251 19.6422 10.1736 17.992 10.1736 15.1242C10.1575 10.3498 4.05341 11.1989 4.05341 9.40453Z" fill="#635BFF"/>
</svg>