<svg xmlns:xlink="http://www.w3.org/1999/xlink" xmlns="http://www.w3.org/2000/svg" width="99" height="25" viewBox="0 0 99 25" fill="none">
    <path fill-rule="evenodd" clip-rule="evenodd" d="M8.5732 6.22937H15.293C18.9008 6.22937 20.2608 8.06684 20.0448 10.7747C19.7008 15.2394 17.0209 17.7055 13.469 17.7055H11.6771C11.1891 17.7055 10.8611 18.0279 10.7331 18.9144L9.97315 24.0319C9.92515 24.3623 9.74915 24.5558 9.49316 24.5799H5.26931C4.86933 24.5799 4.73333 24.2737 4.83733 23.6128L7.40524 7.19646C7.50923 6.54367 7.86122 6.22937 8.5732 6.22937Z" fill="#009EE3"/>
    <path fill-rule="evenodd" clip-rule="evenodd" d="M37.7402 5.9231C40.0041 5.9231 42.1 7.1642 41.812 10.2508C41.468 13.9177 39.5161 15.9486 36.4362 15.9567H33.7483C33.3643 15.9567 33.1723 16.271 33.0763 16.9238L32.5563 20.2522C32.4763 20.7518 32.2204 21.0017 31.8444 21.0017H29.3405C28.9405 21.0017 28.8045 20.7438 28.8925 20.1716L30.9564 6.81766C31.0604 6.15681 31.3004 5.91504 31.7484 5.91504H37.7402V5.9231ZM33.6603 13.0715H35.7002C36.9722 13.0232 37.8202 12.1367 37.9082 10.5329C37.9561 9.54163 37.2922 8.83243 36.2362 8.84049L34.3163 8.84855L33.6603 13.0715ZM48.6118 19.9862C48.8438 19.7767 49.0758 19.6719 49.0438 19.9298L48.9638 20.5504C48.9238 20.8727 49.0518 21.042 49.3477 21.042H51.5717C51.9477 21.042 52.1316 20.8888 52.2196 20.3086L53.5876 11.6451C53.6596 11.2099 53.5476 11.0003 53.2196 11.0003H50.7717C50.5477 11.0003 50.4437 11.1212 50.3877 11.4597L50.2997 11.9916C50.2517 12.2656 50.1237 12.322 50.0117 12.04C49.5957 11.0487 48.5398 10.6054 47.0598 10.6457C43.6279 10.7183 41.324 13.3375 41.076 16.6981C40.884 19.3012 42.732 21.3402 45.1719 21.3402C46.9398 21.3321 47.7318 20.8083 48.6118 19.9862ZM46.7478 18.6565C45.2759 18.6565 44.2439 17.4718 44.4599 16.0131C44.6759 14.5625 46.0519 13.3697 47.5318 13.3697C49.0118 13.3697 50.0357 14.5544 49.8197 16.0131C49.6037 17.4637 48.2278 18.6565 46.7478 18.6565ZM57.9314 10.9681H55.6755C55.2115 10.9681 55.0195 11.3146 55.1715 11.7498L57.9714 20.0023L55.2275 23.9271C54.9955 24.2576 55.1795 24.5557 55.4995 24.5557H58.0354C58.0674 24.5557 58.0914 24.5638 58.1234 24.5638C58.3954 24.5638 58.6434 24.4187 58.7874 24.185L67.3951 11.7498C67.6591 11.371 67.5391 10.9681 67.0991 10.9681H64.6992C64.2912 10.9681 64.1232 11.1293 63.8912 11.4758L60.2993 16.7142L58.6994 11.4597C58.6034 11.1373 58.3714 10.9681 57.9314 10.9681Z" fill="#113984"/>
    <path fill-rule="evenodd" clip-rule="evenodd" d="M76.3468 5.9231C78.6107 5.9231 80.7066 7.1642 80.4186 10.2508C80.0746 13.9177 78.1227 15.9486 75.0428 15.9567H72.3549C71.9709 15.9567 71.7789 16.271 71.6829 16.9238L71.163 20.2522C71.083 20.7518 70.827 21.0017 70.451 21.0017H67.9471C67.5471 21.0017 67.4111 20.7438 67.4991 20.1716L69.571 6.81766C69.675 6.16487 69.915 5.91504 70.363 5.91504L76.3468 5.9231ZM72.2749 13.0715H74.3149C75.5868 13.0232 76.4348 12.1367 76.5228 10.5329C76.5708 9.54163 75.9068 8.83243 74.8508 8.84049L72.9309 8.84855L72.2749 13.0715ZM87.2184 19.9862C87.4504 19.7767 87.6824 19.6719 87.6504 19.9298L87.5704 20.5504C87.5304 20.8727 87.6584 21.042 87.9544 21.042H90.1783C90.5543 21.042 90.7383 20.8888 90.8263 20.3086L92.1942 11.6451C92.2662 11.2099 92.1542 11.0003 91.8262 11.0003H89.3863C89.1623 11.0003 89.0583 11.1212 89.0023 11.4597L88.9143 11.9916C88.8663 12.2656 88.7383 12.322 88.6263 12.04C88.2104 11.0487 87.1544 10.6054 85.6825 10.6457C82.2506 10.7183 79.9466 13.3375 79.6987 16.6981C79.5067 19.3012 81.3546 21.3402 83.7945 21.3402C85.5625 21.3402 86.3544 20.8163 87.2424 19.9943L87.2184 19.9862ZM85.3625 18.6565C83.8905 18.6565 82.8585 17.4718 83.0745 16.0131C83.2905 14.5625 84.6665 13.3697 86.1464 13.3697C87.6184 13.3697 88.6503 14.5544 88.4344 16.0131C88.2184 17.4637 86.8344 18.6565 85.3625 18.6565ZM95.6101 21.05H93.0422C93.0342 21.05 93.0342 21.05 93.0262 21.05C92.8582 21.05 92.7222 20.913 92.7222 20.7438C92.7222 20.7277 92.7222 20.7115 92.7222 20.7035L94.9781 6.31799C95.0261 6.11652 95.2021 5.97145 95.4021 5.97145H97.97C97.978 5.97145 97.978 5.97145 97.986 5.97145C98.154 5.97145 98.29 6.10846 98.29 6.2777C98.29 6.29382 98.29 6.30993 98.29 6.31799L96.0341 20.7035C95.9941 20.905 95.8181 21.05 95.6101 21.05Z" fill="#009EE3"/>
    <path fill-rule="evenodd" clip-rule="evenodd" d="M4.37334 0.579956H11.1011C12.997 0.579956 15.245 0.644429 16.7409 1.97418C17.7409 2.86874 18.2689 4.28714 18.1489 5.81837C17.7329 10.9923 14.669 13.8855 10.5491 13.8855H7.22924C6.66126 13.8855 6.29328 14.2643 6.13328 15.2798L5.20531 21.2193C5.14132 21.6061 4.98132 21.8318 4.68533 21.856H0.541481C0.085497 21.856 -0.0824971 21.5094 0.0374987 20.7358L3.02139 1.70823C3.14139 0.942616 3.55737 0.579956 4.37334 0.579956Z" fill="#113984"/>
    <path fill-rule="evenodd" clip-rule="evenodd" d="M6.22928 14.6834L7.40524 7.19646C7.50923 6.54368 7.86122 6.22131 8.5732 6.22131H15.293C16.4049 6.22131 17.3009 6.39861 18.0049 6.72098C17.3329 11.3227 14.373 13.8855 10.5011 13.8855H7.19724C6.74926 13.8855 6.42927 14.1112 6.22928 14.6834Z" fill="#172C70"/>
</svg>